<svg xmlns="http://www.w3.org/2000/svg" width="117.684" height="21.518" viewBox="0 0 117.684 21.518">
  <g id="NetApp_Logo" data-name="NetApp Logo" transform="translate(-91 -26.026)">
    <path id="Path_31509" data-name="Path 31509" d="M68.665,3.367h3.782V5.283A4.893,4.893,0,0,1,76.6,3.121c3.111,0,6.069,2.437,6.069,6.89v.048c0,4.454-2.91,6.891-6.069,6.891a5.108,5.108,0,0,1-4.152-1.99v5.721H68.665Zm10.224,6.692v-.048a3.272,3.272,0,1,0-6.493,0v.048a3.272,3.272,0,1,0,6.493,0" transform="translate(126.016 26.863)"/>
    <path id="Path_31510" data-name="Path 31510" d="M30.64.509V11.342L22.492.509H18.947V18.035h3.784V6.961l8.433,11.074h3.257V.509Z" transform="translate(100.662 25.531)"/>
    <path id="Path_31511" data-name="Path 31511" d="M30.412,10.111V10.06a6.639,6.639,0,0,1,6.594-6.94c4.451,0,6.49,3.458,6.49,7.239,0,.3-.023.648-.05,1H34.167a3.1,3.1,0,0,0,3.26,2.614,4.37,4.37,0,0,0,3.234-1.37l2.161,1.916A6.662,6.662,0,0,1,37.379,17a6.669,6.669,0,0,1-6.967-6.89m9.4-1.12C39.591,7.3,38.6,6.153,37.006,6.153c-1.569,0-2.59,1.123-2.887,2.837Z" transform="translate(106.509 26.862)"/>
    <path id="Path_31512" data-name="Path 31512" d="M41.178,13.985V7.667H39.587V4.433h1.591v-3.4h3.778v3.4h3.138V7.667H44.956v5.7c0,.871.376,1.3,1.22,1.3a3.825,3.825,0,0,0,1.868-.476v3.037a5.592,5.592,0,0,1-2.99.772c-2.31,0-3.876-.921-3.876-4.007" transform="translate(111.188 25.796)"/>
    <path id="Path_31513" data-name="Path 31513" d="M58.372,3.367h3.779V5.283a4.891,4.891,0,0,1,4.154-2.162c3.11,0,6.068,2.437,6.068,6.89v.048c0,4.454-2.908,6.891-6.068,6.891a5.116,5.116,0,0,1-4.154-1.99v5.721H58.372Zm10.219,6.692v-.048a3.271,3.271,0,1,0-6.49,0v.048a3.271,3.271,0,1,0,6.49,0" transform="translate(120.767 26.863)"/>
    <path id="Path_31514" data-name="Path 31514" d="M53.1.5h3.443l7.276,17.54H59.831l-1.6-3.908h-6.9L49.732,18.04h-3.9ZM57.09,10.753,54.778,5.1l-2.315,5.652Z" transform="translate(114.371 25.526)"/>
    <path id="Path_31515" data-name="Path 31515" d="M0,.5V18.039H8.184V7.516H12.86V18.039h8.184V.5Z" transform="translate(91 25.527)"/>
  </g>
</svg>
